<svg width="40" height="40" viewBox="0 0 62 62" fill="none" xmlns="http://www.w3.org/2000/svg">
<path fill-rule="evenodd" clip-rule="evenodd" d="M0.833328 31C0.833328 47.5684 14.2649 61 30.8333 61C35.6324 61 40.1682 59.8732 44.1907 57.8695C45.2597 57.3373 46.4815 57.16 47.6352 57.4687L54.3133 59.2555C57.2123 60.031 59.8645 57.379 59.0888 54.4801L57.302 47.8018C56.9933 46.6483 57.1705 45.4264 57.7029 44.3575C59.7065 40.3348 60.8333 35.7991 60.8333 31C60.8333 14.4314 47.4019 1 30.8333 1C14.2649 1 0.833328 14.4314 0.833328 31ZM49.033 13.6778C39.2698 23.441 23.4408 23.4409 13.6777 13.6778C23.4408 23.4409 23.4408 39.27 13.6777 49.0331C23.4408 39.27 39.2698 39.27 49.033 49.0331C39.2698 39.27 39.2698 23.441 49.033 13.6778Z" fill="black"/>
<path d="M44.1907 57.8695L43.9679 57.4219L43.9678 57.4219L44.1907 57.8695ZM47.6352 57.4687L47.5059 57.9517L47.5059 57.9517L47.6352 57.4687ZM54.3133 59.2555L54.184 59.7385L54.1841 59.7385L54.3133 59.2555ZM59.0888 54.4801L58.6058 54.6093L58.6058 54.6093L59.0888 54.4801ZM57.302 47.8018L57.785 47.6726L57.785 47.6725L57.302 47.8018ZM57.7029 44.3575L58.1505 44.5804L58.1505 44.5804L57.7029 44.3575ZM30.8333 60.5C14.5411 60.5 1.33333 47.2923 1.33333 31H0.333328C0.333328 47.8445 13.9888 61.5 30.8333 61.5V60.5ZM43.9678 57.4219C40.013 59.3919 35.5533 60.5 30.8333 60.5V61.5C35.7115 61.5 40.3234 60.3545 44.4137 58.317L43.9678 57.4219ZM47.7644 56.9857C46.4777 56.6414 45.1308 56.8429 43.9679 57.4219L44.4136 58.3171C45.3886 57.8317 46.4854 57.6786 47.5059 57.9517L47.7644 56.9857ZM54.4425 58.7725L47.7644 56.9857L47.5059 57.9517L54.184 59.7385L54.4425 58.7725ZM58.6058 54.6093C59.282 57.1365 56.9699 59.4486 54.4425 58.7725L54.1841 59.7385C57.4547 60.6134 60.447 57.6215 59.5718 54.3509L58.6058 54.6093ZM56.819 47.931L58.6058 54.6093L59.5718 54.3509L57.785 47.6726L56.819 47.931ZM57.2554 44.1346C56.6761 45.2975 56.4747 46.6444 56.819 47.931L57.785 47.6725C57.5119 46.6522 57.6649 45.5553 58.1505 44.5804L57.2554 44.1346ZM60.3333 31C60.3333 35.72 59.2252 40.1796 57.2554 44.1346L58.1505 44.5804C60.1877 40.49 61.3333 35.8782 61.3333 31H60.3333ZM30.8333 1.5C47.1257 1.5 60.3333 14.7076 60.3333 31H61.3333C61.3333 14.1553 47.678 0.5 30.8333 0.5V1.5ZM1.33333 31C1.33333 14.7076 14.5411 1.5 30.8333 1.5V0.5C13.9888 0.5 0.333328 14.1553 0.333328 31H1.33333ZM13.3241 14.0314C23.2825 23.9897 39.4281 23.9898 49.3866 14.0314L48.6795 13.3242C39.1115 22.8922 23.5991 22.8921 14.0312 13.3242L13.3241 14.0314ZM14.0312 49.3867C23.9896 39.4283 23.9896 23.2826 14.0312 13.3242L13.3241 14.0314C22.892 23.5992 22.892 39.1117 13.3241 48.6796L14.0312 49.3867ZM49.3866 48.6796C39.4281 38.7211 23.2825 38.7212 13.3241 48.6796L14.0312 49.3867C23.5991 39.8188 39.1115 39.8188 48.6795 49.3867L49.3866 48.6796ZM48.6795 13.3242C38.721 23.2827 38.721 39.4282 48.6795 49.3867L49.3866 48.6796C39.8186 39.1117 39.8186 23.5993 49.3866 14.0314L48.6795 13.3242Z" fill="black"/>
</svg>
