<svg width="108" height="108" viewBox="0 0 108 108" fill="none" xmlns="http://www.w3.org/2000/svg">
<g filter="url(#filter0_d_153_53)">
<rect x="4" width="100" height="100" rx="28" fill="white"/>
</g>
<path d="M19.7469 42.2688C21.3625 34.6672 25.6469 27.7484 31.8125 22.7875C38.1176 17.7427 45.9531 14.996 54.028 15C63.5468 15 72.4374 18.6672 79.0842 25.3266C85.5077 31.7703 89.028 40.2781 88.9998 49.2766C88.9996 55.8739 87.0628 62.3261 83.4295 67.8328L82.7498 68.7781L86.4998 85L68.5624 80.5375C68.5624 80.5375 68.203 80.6578 67.9374 80.7594C67.6718 80.8609 65.3858 81.7375 62.9608 82.4156C60.9452 82.9781 56.7515 83.8219 53.4655 83.8219C44.1452 83.8219 35.4422 80.2125 28.9609 73.6562C22.5375 67.1516 19 58.5031 19 49.2953C18.9995 46.9333 19.2499 44.5779 19.7469 42.2688Z" fill="black"/>
<path d="M35.633 50C44.651 47.7498 51.7498 40.651 54 31.633C56.2502 40.651 63.3489 47.7498 72.3669 50C63.3489 52.2502 56.2502 59.3489 54 68.3669C51.7498 59.3489 44.651 52.2502 35.633 50Z" fill="white" stroke="white" stroke-width="1.5" stroke-linecap="round" stroke-linejoin="round"/>
<defs>
<filter id="filter0_d_153_53" x="0" y="0" width="108" height="108" filterUnits="userSpaceOnUse" color-interpolation-filters="sRGB">
<feFlood flood-opacity="0" result="BackgroundImageFix"/>
<feColorMatrix in="SourceAlpha" type="matrix" values="0 0 0 0 0 0 0 0 0 0 0 0 0 0 0 0 0 0 127 0" result="hardAlpha"/>
<feOffset dy="4"/>
<feGaussianBlur stdDeviation="2"/>
<feComposite in2="hardAlpha" operator="out"/>
<feColorMatrix type="matrix" values="0 0 0 0 0 0 0 0 0 0 0 0 0 0 0 0 0 0 0.25 0"/>
<feBlend mode="normal" in2="BackgroundImageFix" result="effect1_dropShadow_153_53"/>
<feBlend mode="normal" in="SourceGraphic" in2="effect1_dropShadow_153_53" result="shape"/>
</filter>
</defs>
</svg>
