<svg width="105" height="105" viewBox="0 0 105 105" fill="none" xmlns="http://www.w3.org/2000/svg">
<rect width="105" height="105" rx="28" fill="white"/>
<mask id="path-2-inside-1_194_101" fill="white">
<path fill-rule="evenodd" clip-rule="evenodd" d="M3 31C3 15.536 15.536 3 31 3H75C90.464 3 103 15.536 103 31V75C103 90.464 90.464 103 75 103H31C15.536 103 3 90.464 3 75V31ZM23.6402 46.3732C25.025 39.8576 28.6973 33.9272 33.9821 29.675C39.3865 25.3509 46.1026 22.9966 53.024 23C61.1829 23 68.8035 26.1433 74.5008 31.8513C80.0066 37.3746 83.024 44.667 82.9999 52.3799C82.9997 58.0348 81.3395 63.5652 78.2253 68.2853L77.6427 69.0955L80.857 83L65.482 79.175C65.482 79.175 65.174 79.2781 64.9463 79.3652L64.9395 79.3678C64.6819 79.4663 62.7398 80.209 60.6807 80.7848C58.953 81.267 55.3584 81.9902 52.5419 81.9902C44.5531 81.9902 37.0933 78.8964 31.5379 73.2768C26.0321 67.7013 23 60.2884 23 52.396C22.9996 50.3714 23.2142 48.3525 23.6402 46.3732ZM74 53C62.4019 53 53 43.598 53 32C53 43.598 43.598 53 32 53C43.598 53 53 62.4019 53 74C53 62.4019 62.4019 53 74 53Z"/>
</mask>
<path fill-rule="evenodd" clip-rule="evenodd" d="M3 31C3 15.536 15.536 3 31 3H75C90.464 3 103 15.536 103 31V75C103 90.464 90.464 103 75 103H31C15.536 103 3 90.464 3 75V31ZM23.6402 46.3732C25.025 39.8576 28.6973 33.9272 33.9821 29.675C39.3865 25.3509 46.1026 22.9966 53.024 23C61.1829 23 68.8035 26.1433 74.5008 31.8513C80.0066 37.3746 83.024 44.667 82.9999 52.3799C82.9997 58.0348 81.3395 63.5652 78.2253 68.2853L77.6427 69.0955L80.857 83L65.482 79.175C65.482 79.175 65.174 79.2781 64.9463 79.3652L64.9395 79.3678C64.6819 79.4663 62.7398 80.209 60.6807 80.7848C58.953 81.267 55.3584 81.9902 52.5419 81.9902C44.5531 81.9902 37.0933 78.8964 31.5379 73.2768C26.0321 67.7013 23 60.2884 23 52.396C22.9996 50.3714 23.2142 48.3525 23.6402 46.3732ZM74 53C62.4019 53 53 43.598 53 32C53 43.598 43.598 53 32 53C43.598 53 53 62.4019 53 74C53 62.4019 62.4019 53 74 53Z" fill="black"/>
<path d="M33.9821 29.675L33.045 28.5038L33.0418 28.5063L33.9821 29.675ZM23.6402 46.3732L25.1066 46.6888L25.1074 46.6851L23.6402 46.3732ZM53.024 23L53.0233 24.5H53.024V23ZM74.5008 31.8513L75.5631 30.7924L75.5624 30.7917L74.5008 31.8513ZM82.9999 52.3799L81.4999 52.3752L81.4999 52.3799L82.9999 52.3799ZM78.2253 68.2853L79.4432 69.1609C79.4549 69.1446 79.4663 69.1281 79.4774 69.1113L78.2253 68.2853ZM77.6427 69.0955L76.4249 68.2199C76.1728 68.5705 76.084 69.0127 76.1813 69.4334L77.6427 69.0955ZM80.857 83L80.4949 84.4556C81.0013 84.5816 81.5367 84.4354 81.9088 84.0695C82.2808 83.7035 82.436 83.1706 82.3185 82.6622L80.857 83ZM65.482 79.175L65.8442 77.7194C65.5673 77.6505 65.2765 77.662 65.0059 77.7526L65.482 79.175ZM64.9463 79.3652L65.4816 80.7664L65.4821 80.7662L64.9463 79.3652ZM64.9395 79.3678L64.4043 77.9665L64.4037 77.9668L64.9395 79.3678ZM60.6807 80.7848L61.0839 82.2296L61.0847 82.2294L60.6807 80.7848ZM31.5379 73.2768L30.4706 74.3308L30.4712 74.3313L31.5379 73.2768ZM23 52.396L24.5 52.396L24.5 52.3957L23 52.396ZM54.5 32C54.5 31.1716 53.8284 30.5 53 30.5C52.1716 30.5 51.5 31.1716 51.5 32H54.5ZM74 54.5C74.8284 54.5 75.5 53.8284 75.5 53C75.5 52.1716 74.8284 51.5 74 51.5V54.5ZM32 51.5C31.1716 51.5 30.5 52.1716 30.5 53C30.5 53.8284 31.1716 54.5 32 54.5V51.5ZM51.5 74C51.5 74.8284 52.1716 75.5 53 75.5C53.8284 75.5 54.5 74.8284 54.5 74H51.5ZM31 1.5C14.7076 1.5 1.5 14.7076 1.5 31H4.5C4.5 16.3645 16.3645 4.5 31 4.5V1.5ZM75 1.5H31V4.5H75V1.5ZM104.5 31C104.5 14.7076 91.2924 1.5 75 1.5V4.5C89.6355 4.5 101.5 16.3645 101.5 31H104.5ZM104.5 75V31H101.5V75H104.5ZM75 104.5C91.2924 104.5 104.5 91.2924 104.5 75H101.5C101.5 89.6355 89.6355 101.5 75 101.5V104.5ZM31 104.5H75V101.5H31V104.5ZM1.5 75C1.5 91.2924 14.7076 104.5 31 104.5V101.5C16.3645 101.5 4.5 89.6355 4.5 75H1.5ZM1.5 31V75H4.5V31H1.5ZM33.0418 28.5063C27.4932 32.9708 23.6309 39.2015 22.1729 46.0614L25.1074 46.6851C26.419 40.5137 29.9014 34.8837 34.9224 30.8437L33.0418 28.5063ZM53.0248 21.5C45.7625 21.4964 38.7156 23.9667 33.045 28.5038L34.9192 30.8462C40.0575 26.7351 46.4428 24.4968 53.0233 24.5L53.0248 21.5ZM75.5624 30.7917C69.5804 24.7984 61.5765 21.5 53.024 21.5V24.5C60.7893 24.5 68.0265 27.4882 73.4391 32.911L75.5624 30.7917ZM84.4998 52.3846C84.5252 44.2684 81.3471 36.5946 75.5631 30.7924L73.4384 32.9103C78.6661 38.1545 81.5227 45.0655 81.4999 52.3752L84.4998 52.3846ZM79.4774 69.1113C82.7533 64.1461 84.4997 58.3285 84.4999 52.38L81.4999 52.3799C81.4997 57.741 79.9258 62.9843 76.9733 67.4592L79.4774 69.1113ZM78.8606 69.9712L79.4432 69.1609L77.0074 67.4096L76.4249 68.2199L78.8606 69.9712ZM82.3185 82.6622L79.1042 68.7577L76.1813 69.4334L79.3955 83.3378L82.3185 82.6622ZM65.1199 80.6306L80.4949 84.4556L81.2191 81.5444L65.8442 77.7194L65.1199 80.6306ZM65.4821 80.7662C65.5744 80.7309 65.6913 80.6893 65.7921 80.6543C65.841 80.6373 65.8833 80.6228 65.9132 80.6126C65.9281 80.6076 65.9398 80.6036 65.9476 80.601C65.9515 80.5997 65.9544 80.5987 65.9562 80.5981C65.9571 80.5978 65.9577 80.5976 65.958 80.5975C65.9582 80.5974 65.9583 80.5974 65.9583 80.5974C65.9584 80.5974 65.9584 80.5974 65.9583 80.5974C65.9583 80.5974 65.9583 80.5974 65.9583 80.5974C65.9583 80.5974 65.9583 80.5974 65.9583 80.5974C65.9582 80.5974 65.9582 80.5974 65.482 79.175C65.0059 77.7526 65.0058 77.7526 65.0058 77.7526C65.0058 77.7526 65.0058 77.7526 65.0058 77.7526C65.0057 77.7526 65.0057 77.7527 65.0056 77.7527C65.0055 77.7527 65.0054 77.7527 65.0053 77.7528C65.005 77.7529 65.0047 77.753 65.0043 77.7531C65.0034 77.7534 65.0023 77.7538 65.0009 77.7543C64.9981 77.7552 64.9941 77.7565 64.9891 77.7582C64.9792 77.7616 64.965 77.7664 64.9475 77.7723C64.9125 77.7842 64.8636 77.8009 64.8071 77.8206C64.6969 77.8589 64.5459 77.9124 64.4106 77.9641L65.4821 80.7662ZM65.4747 80.7691L65.4816 80.7664L64.4111 77.9639L64.4043 77.9665L65.4747 80.7691ZM61.0847 82.2294C63.2141 81.6339 65.2101 80.8703 65.4753 80.7688L64.4037 77.9668C64.1538 78.0623 62.2655 78.7841 60.2768 79.3402L61.0847 82.2294ZM52.5419 83.4902C55.5435 83.4902 59.2823 82.7324 61.0839 82.2296L60.2775 79.34C58.6238 79.8015 55.1733 80.4902 52.5419 80.4902V83.4902ZM30.4712 74.3313C36.3119 80.2397 44.1574 83.4902 52.5419 83.4902V80.4902C44.9487 80.4902 37.8746 77.5532 32.6047 72.2222L30.4712 74.3313ZM21.5 52.396C21.5 60.68 24.6855 68.4725 30.4706 74.3308L32.6052 72.2228C27.3788 66.9302 24.5 59.8968 24.5 52.396H21.5ZM22.1738 46.0576C21.7254 48.1407 21.4995 50.2655 21.5 52.3963L24.5 52.3957C24.4996 50.4773 24.7029 48.5643 25.1066 46.6888L22.1738 46.0576ZM51.5 32C51.5 44.4264 61.5735 54.5 74 54.5V51.5C63.2304 51.5 54.5 42.7696 54.5 32H51.5ZM32 54.5C44.4264 54.5 54.5 44.4264 54.5 32H51.5C51.5 42.7695 42.7695 51.5 32 51.5V54.5ZM54.5 74C54.5 61.5735 44.4264 51.5 32 51.5V54.5C42.7696 54.5 51.5 63.2304 51.5 74H54.5ZM74 51.5C61.5735 51.5 51.5 61.5735 51.5 74H54.5C54.5 63.2304 63.2304 54.5 74 54.5V51.5Z" fill="black" mask="url(#path-2-inside-1_194_101)"/>
</svg>
