<svg width="100" height="100" viewBox="0 0 100 100" fill="none" xmlns="http://www.w3.org/2000/svg">
<rect width="100" height="100" rx="28" fill="black"/>
<path d="M20.6402 43.3732C22.025 36.8576 25.6973 30.9272 30.9821 26.675C36.3865 22.3509 43.1026 19.9966 50.024 20C58.1829 20 65.8035 23.1433 71.5008 28.8513C77.0066 34.3746 80.024 41.667 79.9999 49.3799C79.9997 55.0348 78.3395 60.5652 75.2253 65.2853L74.6427 66.0955L77.857 80L62.482 76.175C62.482 76.175 62.174 76.2781 61.9463 76.3652C61.7186 76.4522 59.7593 77.2036 57.6807 77.7848C55.953 78.267 52.3584 78.9902 49.5419 78.9902C41.5531 78.9902 34.0933 75.8964 28.5379 70.2768C23.0321 64.7013 20 57.2884 20 49.396C19.9996 47.3714 20.2142 45.3525 20.6402 43.3732Z" fill="white"/>
<path d="M34.6832 50C42.1276 47.9902 47.9902 42.1276 50 34.6832C52.0097 42.1276 57.8724 47.9902 65.3168 50C57.8724 52.0098 52.0097 57.8724 50 65.3168C47.9902 57.8724 42.1276 52.0097 34.6832 50Z" fill="black" stroke="black" stroke-width="1.5" stroke-linecap="round" stroke-linejoin="round"/>
</svg>
