<svg width="400" height="400" viewBox="0 0 400 400" fill="none" xmlns="http://www.w3.org/2000/svg">
<path fill-rule="evenodd" clip-rule="evenodd" d="M200 400C310.457 400 400 310.457 400 200C400 89.5431 310.457 0 200 0C89.5431 0 0 89.5431 0 200C0 310.457 89.5431 400 200 400ZM200 350C282.843 350 350 282.843 350 200C350 117.157 282.843 50 200 50C117.157 50 50 117.157 50 200C50 282.843 117.157 350 200 350Z" fill="#F6F6F6"/>
<path fill-rule="evenodd" clip-rule="evenodd" d="M200 350C282.843 350 350 282.843 350 200C350 117.157 282.843 50 200 50C117.157 50 50 117.157 50 200C50 282.843 117.157 350 200 350ZM200 300C255.229 300 300 255.229 300 200C300 144.771 255.229 100 200 100C144.771 100 100 144.771 100 200C100 255.229 144.771 300 200 300Z" fill="#E6E6E6"/>
<circle cx="200" cy="200" r="100" fill="#DBDBDB"/>
<circle cx="198" cy="200" r="44" fill="white" stroke="black" stroke-width="12"/>
<path d="M252.213 250.213L231 229" stroke="black" stroke-width="10" stroke-linecap="round"/>
<path d="M197.873 214.561C200.28 216.969 201.928 221.174 202.746 225C203.565 221.173 205.21 216.967 207.619 214.559C210.026 212.152 214.232 210.505 218.058 209.685C214.231 208.868 210.025 207.221 207.618 204.813C205.211 202.406 203.563 198.2 202.744 194.373C201.926 198.2 200.279 202.406 197.872 204.815C195.465 207.222 191.259 208.869 187.433 209.688C191.259 210.506 195.465 212.153 197.873 214.561Z" fill="black"/>
<path d="M182.236 195.279C183.673 196.717 184.659 199.231 185.148 201.516C185.637 199.231 186.62 196.717 188.058 195.279C189.497 193.842 192.01 192.857 194.295 192.367C192.009 191.878 189.497 190.895 188.058 189.456C186.62 188.018 185.635 185.505 185.146 183.219C184.658 185.506 183.673 188.018 182.236 189.457C180.798 190.895 178.285 191.879 176 192.369C178.284 192.857 180.798 193.842 182.236 195.279Z" fill="black"/>
<path d="M207.737 190.361C208.147 188.443 208.972 186.332 210.18 185.124C211.387 183.918 213.497 183.091 215.416 182.68C213.497 182.269 211.387 181.444 210.18 180.236C208.972 179.029 208.146 176.92 207.735 175C207.325 176.92 206.499 179.029 205.291 180.237C204.085 181.444 201.975 182.27 200.056 182.682C201.974 183.092 204.085 183.918 205.292 185.125C206.499 186.332 207.326 188.442 207.737 190.361Z" fill="black"/>
</svg>
