<svg width="30" height="30" viewBox="0 0 30 30" fill="none" xmlns="http://www.w3.org/2000/svg">
<mask id="path-1-inside-1_52_84" fill="white">
<path fill-rule="evenodd" clip-rule="evenodd" d="M0 15C0 23.2842 6.7158 30 15 30C17.3995 30 19.6674 29.4366 21.6787 28.4347C22.2132 28.1686 22.8241 28.08 23.4009 28.2344L26.74 29.1278C28.1895 29.5155 29.5156 28.1895 29.1277 26.7401L28.2343 23.4009C28.08 22.8241 28.1686 22.2132 28.4348 21.6787C29.4366 19.6674 30 17.3995 30 15C30 6.71572 23.2843 0 15 0C6.7158 0 0 6.71572 0 15ZM25.0833 15C19.5605 15 15.0833 10.5228 15.0833 5C15.0833 10.5228 10.6062 15 5.08334 15C10.6062 15 15.0833 19.4771 15.0833 25C15.0833 19.4771 19.5605 15 25.0833 15Z"/>
</mask>
<path fill-rule="evenodd" clip-rule="evenodd" d="M0 15C0 23.2842 6.7158 30 15 30C17.3995 30 19.6674 29.4366 21.6787 28.4347C22.2132 28.1686 22.8241 28.08 23.4009 28.2344L26.74 29.1278C28.1895 29.5155 29.5156 28.1895 29.1277 26.7401L28.2343 23.4009C28.08 22.8241 28.1686 22.2132 28.4348 21.6787C29.4366 19.6674 30 17.3995 30 15C30 6.71572 23.2843 0 15 0C6.7158 0 0 6.71572 0 15ZM25.0833 15C19.5605 15 15.0833 10.5228 15.0833 5C15.0833 10.5228 10.6062 15 5.08334 15C10.6062 15 15.0833 19.4771 15.0833 25C15.0833 19.4771 19.5605 15 25.0833 15Z" fill="black"/>
<path d="M21.6787 28.4347L21.233 27.5396L21.2328 27.5397L21.6787 28.4347ZM23.4009 28.2344L23.1424 29.2004L23.1424 29.2004L23.4009 28.2344ZM26.74 29.1278L26.4815 30.0938L26.4816 30.0938L26.74 29.1278ZM29.1277 26.7401L28.1617 26.9985L28.1617 26.9985L29.1277 26.7401ZM28.2343 23.4009L29.2003 23.1424L29.2003 23.1424L28.2343 23.4009ZM28.4348 21.6787L29.3299 22.1246L29.3299 22.1246L28.4348 21.6787ZM15 29C7.26808 29 1 22.7319 1 15H-1C-1 23.8365 6.16352 31 15 31V29ZM21.2328 27.5397C19.357 28.4741 17.2414 29 15 29V31C17.5577 31 19.9779 30.3991 22.1246 29.3298L21.2328 27.5397ZM23.6594 27.2683C22.8164 27.0427 21.9555 27.1799 21.233 27.5396L22.1244 29.3299C22.4709 29.1574 22.8319 29.1173 23.1424 29.2004L23.6594 27.2683ZM26.9984 28.1617L23.6594 27.2683L23.1424 29.2004L26.4815 30.0938L26.9984 28.1617ZM28.1617 26.9985C28.3506 27.7045 27.7047 28.3507 26.9984 28.1617L26.4816 30.0938C28.6743 30.6803 30.6805 28.6745 30.0938 26.4816L28.1617 26.9985ZM27.2683 23.6594L28.1617 26.9985L30.0938 26.4816L29.2003 23.1424L27.2683 23.6594ZM27.5397 21.2329C27.1798 21.9555 27.0427 22.8164 27.2683 23.6594L29.2003 23.1424C29.1172 22.8319 29.1574 22.4709 29.3299 22.1246L27.5397 21.2329ZM29 15C29 17.2414 28.474 19.3569 27.5397 21.2329L29.3299 22.1246C30.3991 19.9779 31 17.5577 31 15H29ZM15 1C22.732 1 29 7.26801 29 15H31C31 6.16344 23.8366 -1 15 -1V1ZM1 15C1 7.26801 7.26808 1 15 1V-1C6.16352 -1 -1 6.16344 -1 15H1ZM14.0833 5C14.0833 11.0751 19.0082 16 25.0833 16V14C20.1127 14 16.0833 9.97056 16.0833 5H14.0833ZM5.08334 16C11.1585 16 16.0833 11.0751 16.0833 5H14.0833C14.0833 9.97056 10.0539 14 5.08334 14V16ZM16.0833 25C16.0833 18.9248 11.1585 14 5.08334 14V16C10.0539 16 14.0833 20.0294 14.0833 25H16.0833ZM25.0833 14C19.0082 14 14.0833 18.9248 14.0833 25H16.0833C16.0833 20.0294 20.1127 16 25.0833 16V14Z" fill="black" mask="url(#path-1-inside-1_52_84)"/>
</svg>
