<svg width="61" height="60" viewBox="0 0 61 60" fill="none" xmlns="http://www.w3.org/2000/svg">
<mask id="path-1-inside-1_52_83" fill="white">
<path fill-rule="evenodd" clip-rule="evenodd" d="M0.833328 30C0.833328 46.5684 14.2649 60 30.8333 60C35.6324 60 40.1682 58.8732 44.1907 56.8695C45.2597 56.3373 46.4815 56.16 47.6352 56.4687L54.3133 58.2555C57.2123 59.031 59.8645 56.379 59.0888 53.4801L57.302 46.8018C56.9933 45.6483 57.1705 44.4264 57.7029 43.3575C59.7065 39.3348 60.8333 34.7991 60.8333 30C60.8333 13.4314 47.4019 0 30.8333 0C14.2649 0 0.833328 13.4314 0.833328 30ZM51 30C39.9542 30 31 21.0457 31 10C31 21.0457 22.0457 30 11 30C22.0457 30 31 38.9542 31 50C31 38.9542 39.9542 30 51 30Z"/>
</mask>
<path fill-rule="evenodd" clip-rule="evenodd" d="M0.833328 30C0.833328 46.5684 14.2649 60 30.8333 60C35.6324 60 40.1682 58.8732 44.1907 56.8695C45.2597 56.3373 46.4815 56.16 47.6352 56.4687L54.3133 58.2555C57.2123 59.031 59.8645 56.379 59.0888 53.4801L57.302 46.8018C56.9933 45.6483 57.1705 44.4264 57.7029 43.3575C59.7065 39.3348 60.8333 34.7991 60.8333 30C60.8333 13.4314 47.4019 0 30.8333 0C14.2649 0 0.833328 13.4314 0.833328 30ZM51 30C39.9542 30 31 21.0457 31 10C31 21.0457 22.0457 30 11 30C22.0457 30 31 38.9542 31 50C31 38.9542 39.9542 30 51 30Z" fill="black"/>
<path d="M44.1907 56.8695L43.7451 55.9743L43.7449 55.9744L44.1907 56.8695ZM47.6352 56.4687L47.3767 57.4347L47.3767 57.4347L47.6352 56.4687ZM54.3133 58.2555L54.0548 59.2215L54.0549 59.2215L54.3133 58.2555ZM59.0888 53.4801L58.1228 53.7386L58.1228 53.7386L59.0888 53.4801ZM57.302 46.8018L58.268 46.5433L58.268 46.5433L57.302 46.8018ZM57.7029 43.3575L58.598 43.8034L58.5981 43.8033L57.7029 43.3575ZM30.8333 59C14.8172 59 1.83333 46.0161 1.83333 30H-0.166672C-0.166672 47.1207 13.7126 61 30.8333 61V59ZM43.7449 55.9744C39.8578 57.9106 35.4743 59 30.8333 59V61C35.7906 61 40.4787 59.8357 44.6366 57.7646L43.7449 55.9744ZM47.8937 55.5027C46.4738 55.1227 45.002 55.3485 43.7451 55.9743L44.6364 57.7647C45.5174 57.3261 46.4893 57.1973 47.3767 57.4347L47.8937 55.5027ZM54.5717 57.2895L47.8936 55.5027L47.3767 57.4347L54.0548 59.2215L54.5717 57.2895ZM58.1228 53.7386C58.6995 55.894 56.7275 57.8662 54.5717 57.2895L54.0549 59.2215C57.6971 60.1958 61.0294 56.864 60.0548 53.2216L58.1228 53.7386ZM56.3359 47.0603L58.1228 53.7386L60.0548 53.2216L58.268 46.5433L56.3359 47.0603ZM56.8078 42.9116C56.1817 44.1687 55.956 45.6406 56.336 47.0603L58.268 46.5433C58.0305 45.656 58.1593 44.6841 58.598 43.8034L56.8078 42.9116ZM59.8333 30C59.8333 34.6409 58.7439 39.0243 56.8078 42.9117L58.5981 43.8033C60.669 39.6453 61.8333 34.9573 61.8333 30H59.8333ZM30.8333 1C46.8496 1 59.8333 13.9837 59.8333 30H61.8333C61.8333 12.8792 47.9542 -1 30.8333 -1V1ZM1.83333 30C1.83333 13.9837 14.8172 1 30.8333 1V-1C13.7126 -1 -0.166672 12.8792 -0.166672 30H1.83333ZM30 10C30 21.598 39.4019 31 51 31V29C40.5065 29 32 20.4934 32 10H30ZM11 31C22.598 31 32 21.598 32 10H30C30 20.4934 21.4934 29 11 29V31ZM32 50C32 38.4019 22.598 29 11 29V31C21.4934 31 30 39.5065 30 50H32ZM51 29C39.4019 29 30 38.4019 30 50H32C32 39.5065 40.5065 31 51 31V29Z" fill="black" mask="url(#path-1-inside-1_52_83)"/>
</svg>
