<svg width="50" height="50" viewBox="0 0 50 50" fill="none" xmlns="http://www.w3.org/2000/svg">
<path fill-rule="evenodd" clip-rule="evenodd" d="M15 0C6.71573 0 0 6.71582 0 15V35C0 43.2842 6.71573 50 15 50H35C43.2843 50 50 43.2842 50 35V15C50 6.71582 43.2843 0 35 0H15ZM25 40C16.7158 40 10 33.2842 10 25C10 16.7158 16.7158 10 25 10C33.2843 10 40 16.7158 40 25C40 27.3994 39.4366 29.6675 38.4348 31.6787C38.1686 32.2134 38.08 32.8242 38.2343 33.4009L39.1277 36.7402C39.5156 38.1895 38.1895 39.5156 36.74 39.1279L33.4009 38.2344C32.8241 38.0801 32.2132 38.1685 31.6787 38.4346C29.6674 39.4365 27.3996 40 25 40ZM25.261 12.6777C25.261 19.5811 30.8574 25.1777 37.761 25.1777C30.8574 25.1777 25.261 30.7739 25.261 37.6777C25.261 30.7739 19.6646 25.1777 12.761 25.1777C19.6646 25.1777 25.261 19.5811 25.261 12.6777Z" fill="black"/>
</svg>
