<svg width="400" height="400" viewBox="0 0 400 400" fill="none" xmlns="http://www.w3.org/2000/svg">
<path fill-rule="evenodd" clip-rule="evenodd" d="M200 400C310.457 400 400 310.457 400 200C400 89.5431 310.457 0 200 0C89.5431 0 0 89.5431 0 200C0 310.457 89.5431 400 200 400ZM200 350C282.843 350 350 282.843 350 200C350 117.157 282.843 50 200 50C117.157 50 50 117.157 50 200C50 282.843 117.157 350 200 350Z" fill="#F2F2F2"/>
<path fill-rule="evenodd" clip-rule="evenodd" d="M200 350C282.843 350 350 282.843 350 200C350 117.157 282.843 50 200 50C117.157 50 50 117.157 50 200C50 282.843 117.157 350 200 350ZM200 300C255.228 300 300 255.228 300 200C300 144.772 255.228 100 200 100C144.772 100 100 144.772 100 200C100 255.228 144.772 300 200 300Z" fill="#E6E6E6"/>
<circle cx="200" cy="200" r="100" fill="#DBDBDB"/>
<path d="M200.333 241.333C200.333 241.333 233.667 224.667 233.667 199.667V170.5L200.333 158L167 170.5V199.667C167 224.667 200.333 241.333 200.333 241.333Z" fill="white" stroke="#1E1E1E" stroke-width="10" stroke-linecap="round" stroke-linejoin="round"/>
<path d="M210.814 185.585L195.689 205.591L189.167 197.148C188.514 196.31 187.555 195.765 186.501 195.634C185.447 195.503 184.383 195.795 183.545 196.448C182.707 197.101 182.162 198.06 182.031 199.114C181.899 200.168 182.192 201.231 182.845 202.07L192.568 214.514C192.945 214.99 193.425 215.375 193.973 215.639C194.521 215.902 195.121 216.037 195.729 216.034C196.34 216.033 196.943 215.891 197.491 215.621C198.038 215.35 198.517 214.958 198.89 214.474L217.176 190.466C217.823 189.617 218.107 188.546 217.964 187.488C217.821 186.43 217.264 185.472 216.415 184.824C215.566 184.177 214.495 183.894 213.437 184.036C212.379 184.179 211.421 184.736 210.774 185.585H210.814Z" fill="black"/>
</svg>
