<svg width="400" height="400" viewBox="0 0 400 400" fill="none" xmlns="http://www.w3.org/2000/svg">
<path fill-rule="evenodd" clip-rule="evenodd" d="M200 400C310.457 400 400 310.457 400 200C400 89.5431 310.457 0 200 0C89.5431 0 0 89.5431 0 200C0 310.457 89.5431 400 200 400ZM200 350C282.843 350 350 282.843 350 200C350 117.157 282.843 50 200 50C117.157 50 50 117.157 50 200C50 282.843 117.157 350 200 350Z" fill="#F6F6F6"/>
<path fill-rule="evenodd" clip-rule="evenodd" d="M200 350C282.843 350 350 282.843 350 200C350 117.157 282.843 50 200 50C117.157 50 50 117.157 50 200C50 282.843 117.157 350 200 350ZM200 300C255.228 300 300 255.228 300 200C300 144.772 255.228 100 200 100C144.772 100 100 144.772 100 200C100 255.228 144.772 300 200 300Z" fill="#E6E6E6"/>
<circle cx="200" cy="200" r="100" fill="#DBDBDB"/>
<path d="M210 160C210 154.477 205.523 150 200 150C194.477 150 190 154.477 190 160C190 165.523 194.477 170 200 170C205.523 170 210 165.523 210 160Z" fill="white" stroke="black" stroke-width="9" stroke-linecap="round" stroke-linejoin="round"/>
<path d="M170 160C170 154.477 165.523 150 160 150C154.477 150 150 154.477 150 160C150 165.523 154.477 170 160 170C165.523 170 170 165.523 170 160Z" fill="white" stroke="black" stroke-width="9" stroke-linecap="round" stroke-linejoin="round"/>
<path d="M250 160C250 154.477 245.523 150 240 150C234.477 150 230 154.477 230 160C230 165.523 234.477 170 240 170C245.523 170 250 165.523 250 160Z" fill="white" stroke="black" stroke-width="9" stroke-linecap="round" stroke-linejoin="round"/>
<path d="M210 240C210 234.477 205.523 230 200 230C194.477 230 190 234.477 190 240C190 245.523 194.477 250 200 250C205.523 250 210 245.523 210 240Z" fill="white" stroke="black" stroke-width="9" stroke-linecap="round" stroke-linejoin="round"/>
<path d="M200 230V170" stroke="black" stroke-width="9" stroke-linecap="round" stroke-linejoin="round"/>
<path d="M160 170V190C160 200 165 205 175 205H225C235 205 240 200 240 190V170" stroke="black" stroke-width="9" stroke-linecap="round" stroke-linejoin="round"/>
</svg>
