<svg width="80" height="80" viewBox="0 0 30 30" fill="none" xmlns="http://www.w3.org/2000/svg">
<path fill-rule="evenodd" clip-rule="evenodd" d="M15 0C6.71573 0 0 6.71573 0 15C0 23.2843 6.71573 30 15 30C23.2843 30 30 23.2843 30 15C30 6.71573 23.2843 0 15 0ZM15 24C10.0295 24 6 19.9705 6 15C6 10.0294 10.0295 6 15 6C19.9706 6 24 10.0294 24 15C24 16.4397 23.6619 17.8004 23.0609 19.0072C22.9012 19.3279 22.848 19.6945 22.9406 20.0405L23.4766 22.044C23.7093 22.9137 22.9137 23.7093 22.044 23.4767L20.0406 22.9406C19.6945 22.848 19.3279 22.9012 19.0072 23.0608C17.8005 23.662 16.4397 24 15 24ZM15.1566 7.60664C15.1566 11.7488 18.5144 15.1066 22.6566 15.1066C18.5144 15.1066 15.1566 18.4645 15.1566 22.6066C15.1566 18.4645 11.7987 15.1066 7.65659 15.1066C11.7987 15.1066 15.1566 11.7488 15.1566 7.60664Z" fill="black"/>
</svg>
