<svg width="30" height="30" viewBox="0 0 30 30" fill="none" xmlns="http://www.w3.org/2000/svg">
<path fill-rule="evenodd" clip-rule="evenodd" d="M8 0C3.58173 0 0 3.58154 0 8V22C0 26.4185 3.58173 30 8 30H22C26.4183 30 30 26.4185 30 22V8C30 3.58154 26.4183 0 22 0H8ZM15 25C9.4772 25 5 20.5229 5 15C5 9.47705 9.4772 5 15 5C20.5229 5 25 9.47705 25 15C25 16.5996 24.6244 18.1118 23.9565 19.4526C23.7791 19.8086 23.72 20.2163 23.8229 20.6006L24.4185 22.8267C24.6771 23.793 23.793 24.6768 22.8267 24.4185L20.6006 23.8228C20.2161 23.7202 19.8088 23.7793 19.4525 23.9565C18.1116 24.6245 16.5997 25 15 25ZM15.174 6.78516C15.174 11.3877 18.9049 15.1187 23.5073 15.1187C18.9049 15.1187 15.174 18.8496 15.174 23.4517C15.174 18.8496 11.443 15.1187 6.84067 15.1187C11.443 15.1187 15.174 11.3877 15.174 6.78516Z" fill="black"/>
</svg>
